<svg width="96" height="44" viewBox="0 0 96 44" fill="none" xmlns="http://www.w3.org/2000/svg">
<path d="M2 9H10V37H2V9ZM43.1922 9V37H35.1922V23.36L28.9522 33.84H28.2322L21.9922 23.36V37H13.9922V9H21.9922L28.5922 20.4L35.1922 9H43.1922ZM58.7953 9C62.662 9 65.8886 10.3467 68.4753 13.04C71.0886 15.7067 72.3953 19.0267 72.3953 23C72.3953 26.9733 71.0886 30.3067 68.4753 33C65.8886 35.6667 62.662 37 58.7953 37H47.1953V9H58.7953ZM58.7953 29.24C60.422 29.24 61.7553 28.6667 62.7953 27.52C63.862 26.3467 64.3953 24.84 64.3953 23C64.3953 21.16 63.862 19.6667 62.7953 18.52C61.7553 17.3467 60.422 16.76 58.7953 16.76H55.5953V29.24H58.7953ZM84.2675 37.64C81.2275 37.64 78.6942 37.0133 76.6675 35.76C74.6408 34.48 73.2808 32.76 72.5875 30.6L79.4275 26.64C80.3608 29.0133 82.0408 30.2 84.4675 30.2C86.2808 30.2 87.1875 29.72 87.1875 28.76C87.1875 28.4933 87.1208 28.2533 86.9875 28.04C86.8542 27.8267 86.6008 27.64 86.2275 27.48C85.8542 27.32 85.5208 27.2 85.2275 27.12C84.9608 27.0133 84.4808 26.8667 83.7875 26.68C83.0942 26.4933 82.5742 26.3467 82.2275 26.24C76.6542 24.56 73.8675 21.56 73.8675 17.24C73.8675 14.68 74.7875 12.56 76.6275 10.88C78.4942 9.2 80.9342 8.36 83.9475 8.36C86.3208 8.36 88.4408 8.92 90.3075 10.04C92.2008 11.16 93.5875 12.7733 94.4675 14.88L87.8275 18.76C87.0542 16.7867 85.7742 15.8 83.9875 15.8C83.2942 15.8 82.7608 15.9467 82.3875 16.24C82.0408 16.5067 81.8675 16.8533 81.8675 17.28C81.8675 17.8667 82.1742 18.32 82.7875 18.64C83.4275 18.96 84.6408 19.3733 86.4275 19.88C87.7608 20.28 88.8542 20.6667 89.7075 21.04C90.5608 21.3867 91.4542 21.8933 92.3875 22.56C93.3208 23.2 94.0142 24.04 94.4675 25.08C94.9475 26.0933 95.1875 27.2933 95.1875 28.68C95.1875 31.5333 94.2008 33.7467 92.2275 35.32C90.2808 36.8667 87.6275 37.64 84.2675 37.64Z" fill="url(#paint0_linear_164_2520)"/>
<defs>
<linearGradient id="paint0_linear_164_2520" x1="105" y1="25.5" x2="-12" y2="25.5" gradientUnits="userSpaceOnUse">
<stop stop-color="#FFE606"/>
<stop offset="0.515625" stop-color="#B3EA3F"/>
<stop offset="1" stop-color="#3AF099"/>
</linearGradient>
</defs>
</svg>
