<svg width="44" height="56" viewBox="0 0 44 56" fill="none" xmlns="http://www.w3.org/2000/svg">
<g filter="url(#filter0_b_34_2580)">
<rect x="44" y="56" width="44" height="56" rx="8" transform="rotate(180 44 56)" fill="#6F6F6F" fill-opacity="0.55"/>
<rect x="43.5" y="55.5" width="43" height="55" rx="7.5" transform="rotate(180 43.5 55.5)" stroke="#555555"/>
<path d="M22 23.2L17.2 28M17.2 28L22 32.8M17.2 28L26.8 28M10 28C10 21.3726 15.3726 16 22 16C28.6274 16 34 21.3726 34 28C34 34.6274 28.6274 40 22 40C15.3726 40 10 34.6274 10 28Z" stroke="#F5F5F6" stroke-width="2" stroke-linecap="round" stroke-linejoin="round"/>
</g>
<defs>
<filter id="filter0_b_34_2580" x="-4" y="-4" width="52" height="64" filterUnits="userSpaceOnUse" color-interpolation-filters="sRGB">
<feFlood flood-opacity="0" result="BackgroundImageFix"/>
<feGaussianBlur in="BackgroundImageFix" stdDeviation="2"/>
<feComposite in2="SourceAlpha" operator="in" result="effect1_backgroundBlur_34_2580"/>
<feBlend mode="normal" in="SourceGraphic" in2="effect1_backgroundBlur_34_2580" result="shape"/>
</filter>
</defs>
</svg>
